# xmcd
#
# Track frame offsets: 
#        150
#        24890
#        40590
#        68937
#        88287
#        106832
#        132267
#        160875
#        180055
#        199727
#        226897
#
# Disc length: 3322 seconds
#
# Revision: 0
# Processed by: cddbd v1.5.2PL0 Copyright (c) Steve Scherf et al.
# Submitted via: ExactAudioCopy v0.99pb3
#
DISCID=7f0cf80b
DTITLE=Shunsuke Kinkuta - Chicago Midnight
DYEAR=1996
DGENRE=Blues
TTITLE0=Four Crowns
TTITLE1=Love Of Mine
TTITLE2=Drinking Gasoline
TTITLE3=Big Boss Man
TTITLE4=29 Ways
TTITLE5=I'm Gonna Get Lucky
TTITLE6=Rib Tips With Hot Sauce
TTITLE7=Don't Tell Me What You've Been Doing
TTITLE8=Luv Somebody
TTITLE9=Let's Straighten It Out
TTITLE10=Chicago Midnight
EXTD=
EXTT0=
EXTT1=
EXTT2=
EXTT3=
EXTT4=
EXTT5=
EXTT6=
EXTT7=
EXTT8=
EXTT9=
EXTT10=
PLAYORDER=
